<svg version="1.1" xmlns="http://www.w3.org/2000/svg" xmlns:xlink="http://www.w3.org/1999/xlink" width="512" height="512" x="0px" y="0px" viewBox="0 0 1000 1000" enable-background="new 0 0 1000 1000" xml:space="preserve">
<path d="M916.2,829c46-45.6,73.8-105.4,73.8-171c0-114.1-84.5-210.9-201.6-245.2c-7-182.9-178.5-329.2-389.1-329.2C184.3,83.5,10,236.1,10,424.3c0,86.4,36.8,165.3,97.4,225.4c19,18.8-3.2,70.3-30.5,112.8c46.1-13.8,95.3-22.8,138.3-22.8c20.1,0,38.9,2,55.5,6.4c40.3,12.3,83.6,19.1,128.8,19.1c8.7,0,17.4-0.3,26.1-0.8c46.3,89.7,149.4,152.1,269.3,152.1c34.3,0,67.1-5.1,97.7-14.5c12.5-3.3,26.8-4.8,42.1-4.8c32.6,0,69.9,6.8,104.9,17.3C918.7,882.3,901.8,843.2,916.2,829L916.2,829z M399.3,702.9c-38.9,0-77-5.6-113.2-16.8l-1-0.3l-1-0.2c-20.3-5.4-43.6-8.1-69-8.1c-14.7,0-29.3,0.8-43.6,2.3c3-36.5-9.8-60.5-25.5-76c-25.3-25-44.9-53.2-58.3-83.7c-13.5-30.6-20.3-62.9-20.3-95.7c0-71.9,32.9-140.2,92.7-192.6c30.5-26.8,66.3-47.8,106.2-62.6c42-15.6,86.8-23.5,133-23.5c46.3,0,91,7.9,133,23.5c39.9,14.8,75.8,35.9,106.2,62.6c53.4,46.6,85.3,106.2,91.5,169.4l0,0c-11.6-1.2-23.4-1.9-35.4-1.9c-163.1,0-295.4,115.7-295.4,258.5c0,15.3,1.5,30.3,4.5,44.9l0,0C402.2,702.9,400.8,702.9,399.3,702.9L399.3,702.9z M877.4,783c-9.3,9.2-21.5,26.1-23.7,52.6c-6.4-0.4-12.8-0.6-19.3-0.6c-20.4,0-39.2,2.3-55.7,6.6l-1,0.2l-1,0.3c-26.3,8-53.9,12.1-82.1,12.1c-33.5,0-66-5.6-96.5-16.9c-28.8-10.7-54.5-25.8-76.4-45c-42-36.8-65.1-84.5-65.1-134.4c0-49.8,23.1-97.6,65.1-134.3c22-19.2,47.6-34.3,76.4-44.9c30.5-11.3,62.9-17,96.5-17c33.6,0,66,5.7,96.5,17c28.8,10.6,54.5,25.7,76.3,44.9c42,36.8,65.1,84.5,65.1,134.3c0,22.7-4.7,45-14,66.2C909.1,745.5,895.3,765.3,877.4,783L877.4,783z M228.4,350.8c0.3-35.5,20.8-64.1,45.9-64.1c25.4,0,46,29.1,46,64.9c0,35.8-20.6,64.8-46,64.8c-25.2,0-45.6-28.6-45.9-64V350.8z M467.6,350.8c0.3-35.5,20.8-64.1,45.9-64.1c25.3,0,46,29.1,46,64.9c0,35.8-20.6,64.8-46,64.8c-25.2,0-45.7-28.6-45.9-64V350.8z M573.5,605.9c0.3-27.2,16-49.1,35.4-49.1c19.6,0,35.4,22.3,35.4,49.9c0,27.6-15.8,50-35.4,50c-19.4,0-35-21.9-35.4-49.2V605.9z M744.2,605.9c0.3-27.2,16-49.1,35.4-49.1c19.6,0,35.4,22.3,35.4,49.9c0,27.6-15.8,50-35.4,50c-19.4,0-35.1-21.9-35.4-49.2V605.9z"/>
</svg>